<!-- icon666.com - MILLIONS OF FREE VECTOR ICONS --><svg viewBox="-40 0 511 511.99956" xmlns="http://www.w3.org/2000/svg"><path d="m366.277344 11.222656-212.074219 122.441406h4.414063v31.605469l58.628906.039063 178.046875-103.824219zm0 0" fill="#d1d3d4"></path><g fill="#6d6fab"><path d="m173.457031 184.96875-64.617187-25.136719 53.261718-30.75 64.617188 25.136719zm0 0"></path><path d="m388 62.875-66.117188-26.042969 43.285157-26.167969 29.664062 48zm0 0"></path><path d="m333.238281 92.71875-64.617187-25.136719-53.257813 30.75 64.617188 25.136719zm0 0"></path></g><path d="m176.332031 215-59.449219 70h303.617188v-70zm0 0" fill="#d1d3d4"></path><path d="m131.449219 282.179688 36.800781-65.785157h61.5l-36.800781 65.785157zm0 0" fill="#6d6fab"></path><path d="m377.449219 282.179688 36.800781-65.785157h6.917969v65.769531zm0 0" fill="#6d6fab"></path><path d="m315.949219 282.179688 36.800781-65.785157h-61.5l-36.800781 65.785157zm0 0" fill="#6d6fab"></path><path d="m36 183.222656h33.949219v101.777344h-33.949219zm0 0" fill="#2378ad"></path><path d="m112 285h308.5v217h-308.5zm0 0" fill="#6d6fab"></path><path d="m420.5 205h-251.59375l231.421875-134.875c4.757813-2.773438 6.378906-8.871094 3.625-13.640625l-29.722656-51.484375c-1.328125-2.296875-3.511719-3.972656-6.074219-4.660156-2.558594-.683594-5.289062-.3281252-7.585938 1l-297.714843 171.882812h-52.355469c-5.523438 0-10 4.480469-10 10v318.777344c0 5.523438 4.476562 10 10 10h410c5.523438 0 10-4.476562 10-10v-287c0-5.523438-4.476562-10-10-10zm-340.550781 20h72.027343l-27.96875 50h-44.058593zm94.945312 0h38.582031l-27.96875 50h-38.582031zm61.5 0h38.582031l-27.96875 50h-38.582031zm61.5 0h38.582031l-27.96875 50h-38.582031zm61.5 0h38.582031l-27.96875 50h-38.582031zm51.105469 18.582031v31.417969h-17.574219zm-330.550781-38.582031v-18.550781l28.070312-16.207031 48.460938 18.851562-25.765625 15.015625c-.453125.265625-.871094.566406-1.265625.890625zm81.332031-65.507812 48.160156 18.734374-31.015625 18.078126c-.429687-.246094-.871093-.46875-1.34375-.652344l-46.855469-18.230469zm53.261719-30.75 47.859375 18.621093-30.96875 18.046875c-.351563-.1875-.710938-.363281-1.089844-.507812l-46.855469-18.230469zm53.261719-30.75 47.558593 18.503906-30.929687 18.027344c-.269532-.136719-.542969-.261719-.828125-.371094l-46.855469-18.230469zm53.257812-30.75 47.261719 18.386718-30.914063 18.019532c-.179687-.085938-.355468-.175782-.546875-.246094l-46.855469-18.230469zm40.847656-23.582032 13.414063 23.230469-32.054688-12.46875zm-341.410156 169.5625h39.449219v81.777344h-39.449219zm390 298.777344h-390v-197h390zm0 0"></path><path d="m113 382.847656h205c5.523438 0 10-4.476562 10-10 0-5.519531-4.476562-10-10-10h-205c-5.523438 0-10 4.480469-10 10 0 5.523438 4.476562 10 10 10zm0 0"></path><path d="m318 403.847656h-41.894531c-5.523438 0-10 4.476563-10 10 0 5.523438 4.476562 10 10 10h41.894531c5.523438 0 10-4.476562 10-10 0-5.523437-4.476562-10-10-10zm0 0"></path><path d="m248.046875 403.847656h-.109375c-5.523438 0-10 4.476563-10 10 0 5.523438 4.476562 10 10 10h.109375c5.523437 0 10-4.476562 10-10 0-5.523437-4.476563-10-10-10zm0 0"></path><path d="m113 423.847656h107.378906c5.523438 0 10-4.476562 10-10 0-5.519531-4.476562-10-10-10h-107.378906c-5.523438 0-10 4.480469-10 10 0 5.523438 4.476562 10 10 10zm0 0"></path><path d="m40.230469 238.839844c-2.640625 0-5.210938-1.070313-7.082031-2.929688-1.859376-1.859375-2.917969-4.441406-2.917969-7.070312s1.058593-5.210938 2.917969-7.070313c1.871093-1.859375 4.441406-2.929687 7.082031-2.929687 2.628906 0 5.207031 1.070312 7.066406 2.929687 1.863281 1.859375 2.933594 4.441407 2.933594 7.070313s-1.070313 5.210937-2.933594 7.070312c-1.859375 1.859375-4.4375 2.929688-7.066406 2.929688zm0 0"></path></svg>